<?xml version="1.0" encoding="UTF-8" standalone="no"?>
<!DOCTYPE svg PUBLIC "-//W3C//DTD SVG 1.1//EN" "http://www.w3.org/Graphics/SVG/1.1/DTD/svg11.dtd">
<svg width="100%" height="100%" viewBox="0 0 2048 2048" version="1.1" xmlns="http://www.w3.org/2000/svg" xmlns:xlink="http://www.w3.org/1999/xlink" xml:space="preserve" xmlns:serif="http://www.serif.com/" style="fill-rule:evenodd;clip-rule:evenodd;stroke-linejoin:round;stroke-miterlimit:2;">
    <g id="download.png" transform="matrix(-2.76235,0,0,2.76235,2066.099906,341.632338)">
        <path d="M443.5,99.497C454.623,100.282 454.502,100.405 465.494,101.563C467.484,101.933 469.474,102.303 471.465,102.673C473.792,103.029 476.12,103.384 478.448,103.739C483.036,104.662 482.963,104.654 487.466,105.629C504.834,109.357 513.738,112.913 525.531,117.408C527.46,118.246 529.388,119.085 531.317,119.923C534.085,121.025 535.091,121.523 535.41,121.681C545.013,126.44 544.921,126.594 545.756,127.003C554.468,131.736 568.746,139.5 587.895,157.051C588.766,157.864 589.638,158.677 590.509,159.491C614.827,181.458 629.944,215.156 632.369,220.56C639.43,236.214 640.352,240.153 644.356,251.543C647.846,262.948 647.8,262.897 650.662,274.453L651.333,276.533C651.629,277.873 651.926,279.212 652.222,280.551C652.562,282.068 654.427,290.4 656.24,299.564C658.196,310.991 658.145,310.886 659.755,322.476C660.32,328.118 659.968,328.077 661.186,333.548C661.845,340.561 662.034,340.459 662.379,347.507C663.364,357.994 664.087,358.019 662.857,362.919C659.264,365.393 659.029,364.746 648.65,367.93C647.519,367.413 647.67,367.196 646.414,366.907C644.786,366.532 644.492,366.343 636.708,348.415C616.436,301.724 597.08,269.562 596.101,267.696C590.955,257.891 555.952,208.597 564.484,224.503C568.356,231.72 580.694,267.097 582.129,285.521C582.78,293.89 583.226,293.81 583.008,294.498C582.142,297.24 579.451,290.776 578.119,288.75C551.566,248.367 519.266,223.514 516.089,220.98C508.493,214.919 471.326,185.266 408.384,164.816C406.163,164.094 381.329,156.025 380.594,155.843C379.375,158.01 381.119,157.662 381.188,157.696C397.664,165.921 464.764,210.536 494.39,241.604C514.02,262.19 467.836,259.329 448.528,261.711C438.686,262.926 429.188,262.214 435.542,263.467C449.615,266.242 504.402,283.466 546.284,320.686L547.091,321.685C546.422,324.786 546.573,324.924 544.196,327.116C540.833,330.217 518.602,312.083 468.53,295.414C400.472,272.757 343.903,272.065 333.508,271.373C280.743,267.86 218.424,281.319 213.58,282.824C202.658,286.218 202.543,285.597 201.634,285.987C200.29,286.565 201.945,286.645 202.563,287.951C200.643,288.423 188.116,291.504 181.083,300.196C180.824,300.321 180.155,301.367 178.422,300.675C172.108,298.155 172.148,298.286 165.51,297.077C165.246,296.542 165.764,295.822 165.5,295.287C165.218,294.715 165.016,295.052 157.541,294.92C156.073,294.894 155.814,294.961 155.669,294.998C154.258,295.363 155.936,295.624 156.516,296.984C151.942,297.662 152.045,297.619 147.518,298.548C141.667,300.716 133.328,301.681 119.78,316.748C118.63,318.027 116.96,321.82 115.487,321.642C110.804,321.074 110.969,320.34 105.504,320.05C105.741,319.82 106.256,320.22 106.493,319.99C108.159,318.367 105.289,317.218 101.545,317.985C100.066,318.288 101.827,318.572 102.504,319.988C79.524,322.79 78.08,326.788 63.55,339.535C66.137,323.022 105.824,265.485 123.191,248.216C124.141,247.174 125.091,246.131 126.041,245.089C127.002,243.898 130.458,239.614 139.177,231.19C139.842,230.516 140.507,229.841 141.172,229.166C141.638,228.674 144.302,225.856 147.199,223.203L149.213,221.196C152.784,217.508 154.556,216.09 155.85,214.836C156.487,214.185 157.124,213.533 157.761,212.881C158.858,212.066 185.998,188.352 202.425,177.406C207.756,173.631 207.723,173.676 208.309,173.212C210.534,171.668 227.837,159.659 236.788,154.884C237.329,154.54 239.608,153.089 243.717,150.856C244.612,150.336 245.507,149.817 246.402,149.298C261.148,141.28 282.251,129.312 316.68,117.982C317.263,117.748 317.846,117.513 318.43,117.279C319.63,116.885 328.74,113.895 333.538,112.653C335.171,112.202 336.805,111.75 338.439,111.298C342.155,110.401 342.133,110.413 342.452,110.329C344.01,109.918 343.903,109.804 345.475,109.39C354.466,107.088 354.401,107.203 363.467,105.355L365.57,104.909C367.561,104.539 369.552,104.168 371.543,103.797C372.505,103.649 377.57,102.871 383.566,101.952C417.128,97.42 428.785,98.764 443.5,99.497Z" style="fill:rgb(220,3,37);fill-opacity:1;"/>
        <path d="M202.563,287.951C218.075,284.527 227.498,289.665 229.392,290.698C232.946,292.635 233.195,291.757 236.655,289.746C238.346,288.763 248.33,282.961 260.511,284.38C272.797,285.81 276.064,288.792 277.45,288.88C278.432,288.942 289.996,278.818 300.565,276.989C328.225,272.203 340.693,284.453 343.864,287.077C349.4,291.657 350.126,284.874 363.513,283.99C395.785,281.858 399.286,300.102 403.461,298.401C410.814,295.404 410.782,295.453 418.523,293.98L422.506,293.858C428.883,294.106 448.803,294.296 463.137,314.744C464.174,316.195 463.752,316.997 465.523,316.807C470.267,316.3 470.185,315.678 478.517,316.028C480.391,316.156 491.576,316.92 500.35,324.675C511.082,334.158 508.861,340.066 512.523,339.929C521.545,339.591 521.93,336.619 538.614,342.213C537.99,344.24 537.584,344.403 538.919,346.075C539.135,346.345 540.209,347.691 542.488,348.508C543.992,349.047 546.882,357.767 547.163,358.612C548.352,362.202 546.771,365.64 557.534,367.26C561.478,367.854 560.444,369.958 563.412,370.741C573.695,373.455 582.507,394.619 569.339,403.015C565.895,405.21 571.278,407.239 574.57,410.427C595.892,431.075 577.411,458.014 553.502,455.485C532.063,453.217 527.867,438.999 527.52,438.483C527.08,437.829 523.699,439.081 523.384,439.198C520.32,440.333 514.488,439.651 513.508,439.459C492.604,435.359 495.51,418.565 491.18,423.211C484.83,430.026 464.946,427.771 453.592,421.322C444.192,415.983 444.457,415.546 438.109,406.771C436.931,405.143 436.562,406.507 430.534,409.572C418.572,415.655 398,412.185 389.817,404.207C379.738,394.381 380.88,390.812 378.704,392.678C352.054,415.532 322.498,394.106 318.966,389.17C317.42,387.01 316.768,385.751 314.348,388.38C298.829,405.245 268.102,404.617 256.163,382.668C253.878,378.468 254.27,384.374 244.423,394.423C235.033,404.006 217.907,407.912 209.5,407.443C184.202,406.033 184.222,395.27 180.874,399.764C179.486,401.628 171.159,412.804 156.523,415.6C134.527,419.803 127.933,410.945 124.387,408.681C122.481,407.465 118.941,415.427 106.584,418.774C88.684,423.622 79.778,410.425 82.014,416.515C85.016,424.688 78.135,435.853 68.309,440.065C37.216,453.396 19.627,415.344 42.659,401.815C46.146,399.767 43.692,398.929 41.773,395.362C30.551,374.51 48.623,349.023 75.501,364.432C78.1,365.923 77.346,367.384 80.379,367.483C80.566,367.313 90.57,358.202 81.504,364.531C80.995,364.886 81.013,366.982 77.454,364.51C67.88,352.755 83.707,314.124 118.374,332.714C121.946,334.629 126.04,340.614 124.9,335.492C123.486,329.143 125.67,313.489 138.613,306.646C139.352,306.255 139.051,305.962 147.5,301.167L148.48,300.5L148.109,299.5L147.518,298.548C152.045,297.619 151.942,297.662 156.516,296.984C161.786,297.005 161.687,296.957 165.51,297.077C172.148,298.286 172.108,298.155 178.422,300.675C180.155,301.367 180.824,300.321 181.083,300.196L181.381,301.5C182.114,304.969 187.174,307.448 187.538,307.579C187.692,307.325 187.845,307.072 187.999,306.818C189.394,297.92 194.369,297.232 202.5,289.86C202.521,289.223 202.542,288.587 202.563,287.951Z" style="fill:rgb(252,252,251);fill-opacity:1;"/>
        <path d="M147.518,298.548L148.109,299.5L148.48,300.5L147.5,301.167C139.051,305.962 139.352,306.255 138.613,306.646C125.67,313.489 123.486,329.143 124.9,335.492C126.04,340.614 121.946,334.629 118.374,332.714C83.707,314.124 67.88,352.755 77.454,364.51C78.429,365.501 79.404,366.492 80.379,367.483C77.346,367.384 78.1,365.923 75.501,364.432C48.623,349.023 30.551,374.51 41.773,395.362C43.692,398.929 46.146,399.767 42.659,401.815C19.627,415.344 37.216,453.396 68.309,440.065C78.135,435.853 85.016,424.688 82.014,416.515C79.778,410.425 88.684,423.622 106.584,418.774C118.941,415.427 122.481,407.465 124.387,408.681C127.933,410.945 134.527,419.803 156.523,415.6C171.159,412.804 179.486,401.628 180.874,399.764C184.222,395.27 184.202,406.033 209.5,407.443C217.907,407.912 235.033,404.006 244.423,394.423C254.27,384.374 253.878,378.468 256.163,382.668C268.102,404.617 298.829,405.245 314.348,388.38C316.768,385.751 317.42,387.01 318.966,389.17C322.498,394.106 352.054,415.532 378.704,392.678C380.88,390.812 379.738,394.381 389.817,404.207C398,412.185 418.572,415.655 430.534,409.572C436.562,406.507 436.931,405.143 438.109,406.771C444.457,415.546 444.192,415.983 453.592,421.322C464.946,427.771 484.83,430.026 491.18,423.211C495.51,418.565 492.604,435.359 513.508,439.459C514.488,439.651 520.32,440.333 523.384,439.198C523.699,439.081 527.08,437.829 527.52,438.483C527.867,438.999 532.063,453.217 553.502,455.485C577.411,458.014 595.892,431.075 574.57,410.427C571.278,407.239 565.895,405.21 569.339,403.015C582.507,394.619 573.695,373.455 563.412,370.741C560.444,369.958 561.478,367.854 557.534,367.26C546.771,365.64 548.352,362.202 547.163,358.612C546.882,357.767 543.992,349.047 542.488,348.508C540.209,347.691 539.135,346.345 538.919,346.075C537.584,344.403 537.99,344.24 538.614,342.213C554.231,349.387 557.723,354.167 563.739,364.375C564.985,366.488 567.822,365.966 569.523,366.427C588.826,371.654 591.039,379.045 597.084,384.688C597.282,385.134 597.109,385.132 597.457,385.527C599.966,388.376 602.988,397.644 603.152,399.779C601.95,411.083 604.418,411.799 598.542,421.53C596.834,424.357 610.051,432.709 603.302,450.42C600.347,458.173 592.169,457.456 592.367,461.5C592.436,462.908 594.928,471.215 588.152,480.232C579.868,491.255 560.892,489.238 556.749,479.382C555.099,475.457 555.84,474.519 553.523,474.275C542.681,473.132 542.043,473.684 531.242,464.813C527.905,462.072 528.928,461.013 525.229,458.945C521.162,456.671 500.81,460.226 486.045,439.813C484.033,437.03 482.56,438.897 482.138,439.15C481.534,439.51 480.419,439.422 480.258,440.107C480.223,440.257 481.199,439.413 481.584,441.508C481.731,442.307 480.558,441.737 480.698,442.5L479.279,443.615C478.93,443.334 478.819,442.823 478.47,442.542C476.455,440.918 476.337,444.355 464.504,444.592C459.869,444.55 459.899,444.558 459.498,444.546C458.424,444.516 458.524,444.414 457.507,444.385C445.471,443.972 433.991,436.867 429.591,431.402C427.436,429.168 427.417,428.438 424.419,429.323C423.057,429.886 421.694,430.448 420.332,431.011C410.334,433.531 409.176,433.47 396.565,433.325C392.231,432.441 388.099,431.157 387.373,430.931C384.842,430.454 384.794,430.712 382.545,429.393C381.162,428.631 381.271,428.653 379.81,428.061C378.623,427.366 369.764,422.182 365.849,418.024C363.887,416.241 363.432,416.489 361.405,418.289C358.462,419.877 358.564,419.906 358.306,420.026C352.499,422.234 352.616,422.371 346.507,423.599C343.913,423.782 343.983,423.865 341.39,424.061C331.709,423.425 331.705,423.75 322.385,420.825C321.478,420.51 315.294,418.362 311.851,415.086C307.409,410.836 306.882,411.078 305.212,412.016C304.031,412.613 302.85,413.21 301.669,413.808L299.38,415.211C284.015,422.221 281.616,420.742 273.503,421.435C260.999,422.215 248.526,415.421 246.57,414.356C244.735,412.625 244.344,412.618 242.277,414.108C228.511,426.872 215.927,424.084 211.477,423.704C205.241,423.171 204.368,418.781 200.299,423.328C194.665,429.386 192.56,429.867 187.655,431.835C187.091,432.075 184.383,433.225 180.514,434.605C170.985,436.386 166.993,435.478 166.502,435.461L165.503,435.458C158.932,434.471 158.493,434.25 153.629,438.64C149.513,441.979 147.905,443.988 139.664,447.822C137.648,448.813 134.88,450.213 134.466,450.423C125.095,454.79 122.299,454.699 117.493,455.445C106.743,456.528 106.778,455.812 101.522,455.359C95.935,454.324 95.971,454.886 94.588,455.566C94.07,456.456 93.552,457.346 93.035,458.236C88.501,466.647 79.151,471.112 77.671,471.82C76.918,472.325 76.166,472.83 75.413,473.335C74.275,474.041 74.375,474.001 74.275,474.041C61.636,479.206 60.185,484.715 46.49,488.467C45.482,488.74 44.475,489.014 43.467,489.287L41.493,489.428L40.5,489.503C37.499,489.674 37.549,489.755 34.498,489.511C31.802,489.054 31.871,488.948 27.417,487.735C20.114,485.805 10.822,478.333 8.213,465.572C7.035,460.763 7.017,460.82 6.933,460.402C6.597,458.414 6.705,458.503 6.732,456.502C6.858,455.06 6.497,452.987 8.074,448.365C10.558,441.087 8.374,441.053 6.796,433.393C6.574,431.419 5.071,418.032 13.473,409.474C17.151,405.726 16.339,405.22 16.169,402.582C15.932,401.556 15.696,400.53 15.459,399.504C15.354,397.68 14.663,392.488 15.817,387.549C16.754,384.513 16.778,384.592 17.568,381.517C18.74,377.433 18.967,377.582 20.989,373.785C25.815,364.208 39.534,352.829 51.473,350.362L53.536,349.639C59.04,348.734 58.862,347.99 60.545,344.517C61.844,341.873 61.66,341.832 63.55,339.535C78.08,326.788 79.524,322.79 102.504,319.988L105.504,320.05C110.969,320.34 110.804,321.074 115.487,321.642C116.96,321.82 118.63,318.027 119.78,316.748C133.328,301.681 141.667,300.716 147.518,298.548Z" style="fill:rgb(222,221,222);fill-opacity:1;"/>
        <path d="M380.594,155.843C381.329,156.025 406.163,164.094 408.384,164.816C471.326,185.266 508.493,214.919 516.089,220.98C519.266,223.514 551.566,248.367 578.119,288.75C579.451,290.776 582.142,297.24 583.008,294.498C583.226,293.81 582.78,293.89 582.129,285.521C580.694,267.097 568.356,231.72 564.484,224.503C555.952,208.597 590.955,257.891 596.101,267.696C597.08,269.562 616.436,301.724 636.708,348.415C644.492,366.343 644.786,366.532 646.414,366.907C647.67,367.196 647.519,367.413 648.65,367.93C643.651,370.361 642.807,370.751 638.858,373.905C636.137,376.078 637.122,376.845 632.391,382.335C631.428,382.365 630.466,382.394 629.504,382.424C625.68,379.17 625.499,379.4 623.839,377.19L622.463,375.531C620.239,372.732 607.035,356.119 593.852,341.21C584.978,329.853 582.281,325.403 579.845,323.488C573.32,309.481 500.468,233.78 507.591,247.454C510.045,252.166 515.499,248.261 533.854,283.319C540.506,296.025 543.421,308.132 546.972,317.393C547.626,319.101 547.063,319.033 546.284,320.686C504.402,283.466 449.615,266.242 435.542,263.467C429.188,262.214 438.686,262.926 448.528,261.711C467.836,259.329 514.02,262.19 494.39,241.604C464.764,210.536 397.664,165.921 381.188,157.696C381.119,157.662 379.375,158.01 380.594,155.843Z" style="fill:rgb(175,0,30);fill-opacity:1;"/>
        <path d="M679.496,359.568L683.512,360.39C684.634,360.649 692.282,362.419 696.574,366.422C700.01,369.626 701.009,367.007 710.648,370.015C727.203,375.181 730.316,386.51 732.926,393.082C733.458,393.547 733.99,394.011 734.523,394.475C737.701,396.245 737.606,396.303 739.705,399.326C739.463,399.687 735.273,403.658 736.88,410.476C741.074,428.269 727.763,430.79 728.917,434.288C729.461,435.934 733.59,448.444 723.314,455.228C713.904,461.442 708.217,455.765 707.117,460.467C702.228,481.37 678.796,476.052 672.808,471.163C666.236,465.796 663.956,471.535 657.846,467.112C647.887,459.903 652.856,451.997 647.417,454.314C635.664,459.323 615.613,443.758 627.183,424.309C629.653,420.156 628.744,419.816 626.965,417.225C621.935,409.9 625.871,398.683 629.801,395.903C638.819,389.524 647.25,391.552 647.502,391.547C650.109,391.501 646.78,373.898 662.358,370.085C666.208,369.142 664.345,367.381 666.5,364.073L667.04,363.5L667.255,362.5L667.44,361.234C671.243,360.29 673.962,359.427 679.496,359.568Z" style="fill:rgb(253,252,251);fill-opacity:1;"/>
        <path d="M202.563,287.951C201.945,286.645 200.29,286.565 201.634,285.987C202.543,285.597 202.658,286.218 213.58,282.824C218.424,281.319 280.743,267.86 333.508,271.373C343.903,272.065 400.472,272.757 468.53,295.414C518.602,312.083 540.833,330.217 544.196,327.116C546.573,324.924 546.422,324.786 547.091,321.685L546.284,320.686C547.063,319.033 547.626,319.101 546.972,317.393C543.421,308.132 540.506,296.025 533.854,283.319C515.499,248.261 510.045,252.166 507.591,247.454C500.468,233.78 573.32,309.481 579.845,323.488C579.974,326.567 582.565,331.108 583.088,332.635C583.428,333.627 583.683,334.647 584.023,335.64C587.061,345.084 586.909,345.014 589.712,354.429C591.847,361.977 591.895,361.949 592.069,362.607C594.893,371.434 594.516,371.476 596.81,380.413L597.17,381.598C597.323,383.154 597.288,383.052 597.084,384.688C591.039,379.045 588.826,371.654 569.523,366.427C567.822,365.966 564.985,366.488 563.739,364.375C557.723,354.167 554.231,349.387 538.614,342.213C521.93,336.619 521.545,339.591 512.523,339.929C508.861,340.066 511.082,334.158 500.35,324.675C491.576,316.92 480.391,316.156 478.517,316.028C478.759,315.818 479.236,316.199 479.478,315.989C480.683,314.947 481.058,314.259 479.482,313.791C479.254,313.724 479.262,313.799 476.5,313.895L475.5,313.832L474.5,313.843L473.5,313.89C470.576,313.966 470.486,313.262 467.821,314.5C467.407,314.693 466.943,314.98 466.5,314.866C464.313,314.305 464.687,313.654 464.5,313.647C463.468,313.609 464.091,314.778 463.137,314.744C448.803,294.296 428.883,294.106 422.506,293.858C422.001,293.382 422.005,292.511 421.5,292.035C421.256,291.804 420.829,292.002 420.495,291.962C420.267,291.934 418.082,291.671 417.617,291.931C416.373,292.627 417.939,292.659 418.523,293.98C410.782,295.453 410.814,295.404 403.461,298.401C399.286,300.102 395.785,281.858 363.513,283.99C350.126,284.874 349.4,291.657 343.864,287.077C340.693,284.453 328.225,272.203 300.565,276.989C289.996,278.818 278.432,288.942 277.45,288.88C276.064,288.792 272.797,285.81 260.511,284.38C248.33,282.961 238.346,288.763 236.655,289.746C233.195,291.757 232.946,292.635 229.392,290.698C227.498,289.665 218.075,284.527 202.563,287.951Z" style="fill:rgb(154,0,24);fill-opacity:1;"/>
        <path d="M629.504,382.424C630.466,382.394 631.428,382.365 632.391,382.335L632.892,383.5L632.5,384.872L631.5,385.407C630.067,386.194 620.223,388.084 613.96,399.733C607.978,410.859 616.432,421.845 614.442,424.448C605.944,435.566 608.939,456.382 628.554,460.134C631.857,460.766 628.119,470.147 634.787,478.266C643.225,488.54 655.198,481.722 656.734,480.847C660.458,478.727 656.828,486.314 669.606,492.253C681.364,497.717 690.272,489.806 691.606,488.621C695.773,484.92 699,489.69 705.013,481.191C705.754,480.144 706.077,476.972 709.618,479.329C719.214,485.716 729.866,474.419 731.093,473.118C731.206,473.463 733.198,473.308 731.924,475.657C729.282,480.529 725.392,483.426 724.686,483.952C724.371,484.187 723.1,483.527 720.581,485.647C720.361,485.833 720.614,486.277 720.431,486.5C719.479,487.657 717.775,485.632 717.919,487.5C717.933,487.674 717.891,487.659 717.537,489.642C716.852,489.913 716.167,490.184 715.481,490.456C708.718,494.545 707.241,502.845 691.495,502.48C690.846,502.843 690.196,503.205 689.547,503.567C675.101,512.963 664.041,506.037 661.682,504.071C658.709,502.342 657.244,503.781 652.502,505.523C649.999,505.685 650.07,505.704 647.499,505.525C646.194,505.401 644.889,505.277 643.584,505.154L641.544,504.411C641.222,504.272 633.746,502.048 628.749,494.331C628.48,493.979 628.211,493.628 627.942,493.276C625.921,489.997 625.962,490.071 624.665,486.432C623.205,482.339 622.424,482.809 617.556,481.351C615.925,480.324 614.294,479.298 612.663,478.271C610.246,476.697 610.287,476.694 608.665,474.328C605.42,470.216 604.906,468.897 604.698,468.363C604.549,467.981 597.349,449.499 601.363,464.476C601.571,465.254 602.458,468.563 602.435,474.481C602.162,475.541 598.777,497.851 580.591,502.791L579.394,503.181C578.048,503.469 576.702,503.757 575.356,504.045C574.09,504.096 572.824,504.147 571.558,504.198C567.475,503.818 565.989,503.543 565.51,503.454C546.966,498.453 552.258,488.889 543.547,487.305C539.689,485.979 539.722,485.929 539.386,485.818C530.938,483.123 527.443,476.406 525.905,474.236C524.215,470.709 524.26,470.756 523.591,469.466C522.532,466.948 523.049,466.294 521.531,466.266C517.466,466.191 517.572,466.635 513.541,466.311C512.854,466.111 512.167,465.911 511.479,465.711C510.178,465.528 508.877,465.345 507.576,465.163C506.879,464.961 506.181,464.759 505.483,464.557C499.453,462.342 498.417,462.931 490.734,457.157C488.491,454.915 488.511,454.924 488.312,454.735C487.778,454.231 487.74,454.379 487.177,453.845C482.415,449.33 482.46,449.324 479.279,443.615L480.698,442.5C480.558,441.737 481.731,442.307 481.584,441.508C481.199,439.413 480.223,440.257 480.258,440.107C480.419,439.422 481.534,439.51 482.138,439.15C482.56,438.897 484.033,437.03 486.045,439.813C500.81,460.226 521.162,456.671 525.229,458.945C528.928,461.013 527.905,462.072 531.242,464.813C542.043,473.684 542.681,473.132 553.523,474.275C555.84,474.519 555.099,475.457 556.749,479.382C560.892,489.238 579.868,491.255 588.152,480.232C594.928,471.215 592.436,462.908 592.367,461.5C592.169,457.456 600.347,458.173 603.302,450.42C610.051,432.709 596.834,424.357 598.542,421.53C604.418,411.799 601.95,411.083 603.152,399.779C603.409,399.899 603.188,400.458 603.445,400.578C603.599,400.651 604.087,400.879 605.083,399.222C605.753,399.017 606.318,400.52 608.176,398.275C619.832,384.202 622.895,387.67 623.347,386.185C623.513,385.642 622.929,385.043 623.095,384.5L622.592,383.747C626.011,382.85 625.985,383.032 629.504,382.424Z" style="fill:rgb(195,194,198);fill-opacity:0.99;"/>
        <path d="M667.44,361.234L667.255,362.5L667.04,363.5L666.5,364.073C664.345,367.381 666.208,369.142 662.358,370.085C646.78,373.898 650.109,391.501 647.502,391.547C647.25,391.552 638.819,389.524 629.801,395.903C625.871,398.683 621.935,409.9 626.965,417.225C628.744,419.816 629.653,420.156 627.183,424.309C615.613,443.758 635.664,459.323 647.417,454.314C652.856,451.997 647.887,459.903 657.846,467.112C663.956,471.535 666.236,465.796 672.808,471.163C678.796,476.052 702.228,481.37 707.117,460.467C708.217,455.765 713.904,461.442 723.314,455.228C733.59,448.444 729.461,435.934 728.917,434.288C727.763,430.79 741.074,428.269 736.88,410.476C735.273,403.658 739.463,399.687 739.705,399.326C749.509,410.262 747.787,421.128 747.454,424.496C747.415,426.14 747.557,426.582 746.466,429.487C744.597,434.465 745.825,434.521 747.344,439.55C747.643,442.876 749.662,448.397 744.153,459.316C743.04,461.52 740.325,463.977 739.871,464.744C737.101,469.426 738.024,469.743 735.597,474.563C731.327,481.154 727.747,486.555 718.428,489.322L717.537,489.642C717.891,487.659 717.933,487.674 717.919,487.5C717.775,485.632 719.479,487.657 720.431,486.5C720.614,486.277 720.361,485.833 720.581,485.647C723.1,483.527 724.371,484.187 724.686,483.952C725.392,483.426 729.282,480.529 731.924,475.657C733.198,473.308 731.206,473.463 731.093,473.118C729.866,474.419 719.214,485.716 709.618,479.329C706.077,476.972 705.754,480.144 705.013,481.191C699,489.69 695.773,484.92 691.606,488.621C690.272,489.806 681.364,497.717 669.606,492.253C656.828,486.314 660.458,478.727 656.734,480.847C655.198,481.722 643.225,488.54 634.787,478.266C628.119,470.147 631.857,460.766 628.554,460.134C608.939,456.382 605.944,435.566 614.442,424.448C616.432,421.845 607.978,410.859 613.96,399.733C620.223,388.084 630.067,386.194 631.5,385.407L632.5,384.872L632.892,383.5L632.391,382.335C637.122,376.845 636.137,376.078 638.858,373.905C642.807,370.751 643.651,370.361 648.65,367.93C659.029,364.746 659.264,365.393 662.857,362.919C665.358,361.824 665.338,361.822 665.558,361.736C666.489,361.371 666.504,361.601 667.44,361.234Z" style="fill:rgb(231,230,230);fill-opacity:1;"/>
        <path d="M202.563,287.951C202.542,288.587 202.521,289.223 202.5,289.86C194.369,297.232 189.394,297.92 187.999,306.818L187.538,307.579C187.174,307.448 182.114,304.969 181.381,301.5L181.083,300.196C188.116,291.504 200.643,288.423 202.563,287.951Z" style="fill:rgb(234,233,232);fill-opacity:1;"/>
        <path d="M622.592,383.747L623.095,384.5C622.929,385.043 623.513,385.642 623.347,386.185C622.895,387.67 619.832,384.202 608.176,398.275C606.318,400.52 605.753,399.017 605.083,399.222C609.267,390.965 612.603,388.164 622.592,383.747Z" style="fill:rgb(222,224,223);fill-opacity:0.98;"/>
        <path d="M463.137,314.744C464.091,314.778 463.468,313.609 464.5,313.647C464.687,313.654 464.313,314.305 466.5,314.866C466.943,314.98 467.407,314.693 467.821,314.5C470.486,313.262 470.576,313.966 473.5,313.89L474.5,313.843L475.5,313.832L476.5,313.895C479.262,313.799 479.254,313.724 479.482,313.791C481.058,314.259 480.683,314.947 479.478,315.989C479.236,316.199 478.759,315.818 478.517,316.028C470.185,315.678 470.267,316.3 465.523,316.807C463.752,316.997 464.174,316.195 463.137,314.744Z" style="fill:rgb(140,0,6);fill-opacity:1;"/>
        <path d="M558.26,342.608C560.208,343.66 561.141,344.715 561.496,342.496C561.753,340.892 562.531,340.223 563.282,341.675C564.133,343.32 563.68,343.627 565.312,344.643C565.497,344.758 565.939,346.067 565.861,346.213C564.915,347.988 564.277,346.328 562.35,346.748C560.068,347.246 560.395,344.977 559.388,344.621C558.185,344.195 558.524,343.938 558.26,342.608Z" style="fill:rgb(142,0,23);fill-opacity:1;"/>
        <path d="M156.516,296.984C155.936,295.624 154.258,295.363 155.669,294.998C155.814,294.961 156.073,294.894 157.541,294.92C165.016,295.052 165.218,294.715 165.5,295.287C165.764,295.822 165.246,296.542 165.51,297.077C161.687,296.957 161.786,297.005 156.516,296.984Z" style="fill:rgb(179,4,12);fill-opacity:1;"/>
        <path d="M587.895,157.051L588.753,156.5C591.549,155.139 592.7,154.446 593.348,157.539C593.721,159.32 591.319,159.869 591.061,159.928C590.832,159.98 590.738,159.438 590.509,159.491C589.638,158.677 588.766,157.864 587.895,157.051Z" style="fill:rgb(75,5,15);fill-opacity:0.04;"/>
        <path d="M523.591,469.466C524.26,470.756 524.215,470.709 525.905,474.236L524.202,474.5C523.665,474.479 524.074,475.113 523.542,475.093C523.454,475.089 523.034,475.073 522.646,474.439C522.518,474.231 521.537,472.629 521.824,471.497C522.044,470.627 523.371,470.336 523.591,469.466Z" style="fill:rgb(73,72,73);fill-opacity:0.05;"/>
        <path d="M102.504,319.988C101.827,318.572 100.066,318.288 101.545,317.985C105.289,317.218 108.159,318.367 106.493,319.99C106.256,320.22 105.741,319.82 105.504,320.05L102.504,319.988Z" style="fill:rgb(131,0,7);fill-opacity:1;"/>
        <path d="M418.523,293.98C417.939,292.659 416.373,292.627 417.617,291.931C418.082,291.671 420.267,291.934 420.495,291.962C420.829,292.002 421.256,291.804 421.5,292.035C422.005,292.511 422.001,293.382 422.506,293.858L418.523,293.98Z" style="fill:rgb(150,15,24);fill-opacity:1;"/>
        <path d="M46.49,488.467C48.683,490.442 48.72,490.386 48.858,490.6C49.1,490.972 48.251,493.779 43.467,489.287C44.475,489.014 45.482,488.74 46.49,488.467Z" style="fill:rgb(99,97,100);fill-opacity:0.06;"/>
        <path d="M77.671,471.82C77.904,472.507 78.921,472.728 79.154,473.416C79.303,473.857 77.974,475.408 77.514,475.134C76.722,474.663 76.205,473.807 75.413,473.335C76.166,472.83 76.918,472.325 77.671,471.82Z" style="fill:rgb(61,60,61);fill-opacity:0.05;"/>
        <path d="M141.172,229.166C140.507,229.841 139.842,230.516 139.177,231.19C139.042,231.007 135.501,224.97 141.172,229.166Z" style="fill:rgb(89,7,20);fill-opacity:0.04;"/>
        <g transform="matrix(1,0,0,1,0,2.5)">
            <path d="M77.454,364.51C81.013,366.982 80.995,364.886 81.504,364.531C90.57,358.202 80.566,367.313 80.379,367.483C79.404,366.492 78.429,365.501 77.454,364.51Z" style="fill:rgb(248,246,245);fill-opacity:1;"/>
        </g>
        <path d="M316.68,117.982C311.299,114.373 317.936,116.449 318.092,116.5L318.43,117.279C317.846,117.513 317.263,117.748 316.68,117.982Z" style="fill:rgb(142,11,28);fill-opacity:0.04;"/>
        <path d="M157.761,212.881C157.124,213.533 156.487,214.185 155.85,214.836C155.531,214.257 154.72,214.061 154.401,213.481C154.27,213.242 153.85,211.131 157.761,212.881Z" style="fill:rgb(116,9,24);fill-opacity:0.06;"/>
        <path d="M650.662,274.453C650.803,274.306 656.563,268.27 653.211,274.408C653.103,274.607 653.072,274.565 651.333,276.533L650.662,274.453Z" style="fill:rgb(112,13,27);fill-opacity:0.04;"/>
        <path d="M511.479,465.711C512.167,465.911 512.854,466.111 513.541,466.311C512.953,466.833 510.986,468.956 509.622,468.226C509.401,468.107 509.176,467.81 511.479,465.711Z" style="fill:rgb(85,83,84);fill-opacity:0.04;"/>
        <path d="M717.537,489.642L718.428,489.322L719.5,490.844C722.415,495.922 717.875,491.188 717.779,491.087C716.33,489.576 715.929,490.579 715.481,490.456C716.167,490.184 716.852,489.913 717.537,489.642Z" style="fill:rgb(98,97,98);fill-opacity:0.09;"/>
        <path d="M691.495,502.48C693.239,504.283 692.935,504.7 692.807,504.877C692.641,505.104 692.148,505.781 689.547,503.567C690.196,503.205 690.846,502.843 691.495,502.48Z" style="fill:rgb(95,95,95);fill-opacity:0.04;"/>
        <path d="M53.536,349.639L51.473,350.362C50.16,349.005 49.003,348.677 50.577,347.716C50.75,347.611 50.904,347.236 53.536,349.639Z" style="fill:rgb(117,109,110);fill-opacity:0.05;"/>
        <path d="M627.942,493.276C628.211,493.628 628.48,493.979 628.749,494.331C628.094,495.561 627.397,497.228 626.69,496.374C625.779,495.274 626.576,495.236 627.942,493.276Z" style="fill:rgb(92,90,91);fill-opacity:0.05;"/>
        <path d="M277.479,250.361C277.508,250.163 276.892,250.337 276.92,250.139C276.938,250.017 277.697,248.756 277.768,248.638C277.861,248.484 280.281,245.077 279.772,249.671C279.706,250.262 277.67,250.353 277.479,250.361Z" style="fill:rgb(224,2,38);fill-opacity:1;"/>
        <path d="M377.421,155.181C376.707,154.965 375.936,155.814 375.222,155.597C375.065,155.55 375.866,154.357 376.486,154.363C377.559,154.374 377.32,155.092 377.421,155.181Z" style="fill:rgb(222,2,37);fill-opacity:1;"/>
        <path d="M10.278,450.433C9.875,450.839 10.414,450.994 10.037,451.375C9.529,451.886 9.987,451.179 9.814,450.5L10.278,450.433Z" style="fill:rgb(200,201,203);fill-opacity:0.98;"/>
    </g>
</svg>
